HIERARCHY
ROOT Hips
{
  OFFSET 0 0 0
  CHANNELS 6 Xposition Yposition Zposition Zrotation Yrotation Xrotation
  JOINT LeftThigh
  {
    OFFSET 8.409438 0 -5.917753
    CHANNELS 3 Zrotation Yrotation Xrotation
    JOINT LeftLeg
    {
      OFFSET 0 0 -42.358652
      CHANNELS 3 Zrotation Yrotation Xrotation
      JOINT LeftFoot
      {
        OFFSET 0 0 -39.357303
        CHANNELS 3 Zrotation Yrotation Xrotation
      }
    }
  }
  JOINT RightThigh
  {
    OFFSET -8.409438 0 -5.917753
    CHANNELS 3 Zrotation Yrotation Xrotation
    JOINT RightLeg
    {
      OFFSET 0 0 -42.358652
      CHANNELS 3 Zrotation Yrotation Xrotation
      JOINT RightFoot
      {
        OFFSET 0 0 -39.357303
        CHANNELS 3 Zrotation Yrotation Xrotation
      }
    }
  }
  JOINT SpineLow
  {
    OFFSET 0 0 4.719101
    CHANNELS 3 Zrotation Yrotation Xrotation
    JOINT SpineMid
    {
      OFFSET 0 0 12.899191
      CHANNELS 3 Zrotation Yrotation Xrotation
      JOINT Chest
      {
        OFFSET 0 0 12.899191
        CHANNELS 3 Zrotation Yrotation Xrotation
        JOINT LeftShoulder
        {
          OFFSET 7.550562 1.41573 9.438202
          CHANNELS 3 Zrotation Yrotation Xrotation
          JOINT LeftArm
          {
            OFFSET 9.155056 0 4.247191
            CHANNELS 3 Zrotation Yrotation Xrotation
            JOINT LeftForearm
            {
              OFFSET 0 0 25.771955
              CHANNELS 3 Zrotation Yrotation Xrotation
              JOINT LeftHand
              {
                OFFSET 0 0 25.197169
                CHANNELS 3 Zrotation Yrotation Xrotation
              }
            }
          }
        }
        JOINT RightShoulder
        {
          OFFSET -7.550562 1.41573 9.438202
          CHANNELS 3 Zrotation Yrotation Xrotation
          JOINT RightArm
          {
            OFFSET -9.155056 0 4.247191
            CHANNELS 3 Zrotation Yrotation Xrotation
            JOINT RightForearm
            {
              OFFSET 0 0 -25.771955
              CHANNELS 3 Zrotation Yrotation Xrotation
              JOINT RightHand
              {
                OFFSET 0 0 -25.197169
                CHANNELS 3 Zrotation Yrotation Xrotation
              }
            }
          }
        }
        JOINT Neck
        {
          OFFSET 0 0 15.101124
          CHANNELS 3 Zrotation Yrotation Xrotation
          JOINT Head
          {
            OFFSET 0 0 11.325843
            CHANNELS 3 Zrotation Yrotation Xrotation
            End Site
            {
              OFFSET 0 0 14.157303
            }
          }
        }
      }
    }
  }
}
MOTION
Frames: 17
Frame Time: 0.0
0.0  93.25843  0.0  -0.691713  29.745907  -81.76817  3.996486  -12.693111  16.132934  -0.719804  2.347778  6.218187  -4.764461  -3.662645  -4.185101  -15.257737  -13.234825  -36.438766  5.415624  17.619409  24.955196  -1.459764  1.77979  1.940857  -1.302338  -0.159097  -0.272535  -3.558017  -0.449396  -0.736144  -3.558017  -0.449396  -0.736144  -16.309224  23.093206  6.832572  125.774954  46.132445  -154.686855  -13.386828  -1.334714  85.570507  73.398129  -29.794589  7.980036  8.139154  -14.509866  15.404339  20.267113  83.610295  -28.009614  -45.176595  -13.203312  -72.403361  68.387562  -7.490812  -46.84918  -10.407442  -0.082529  -0.474395  -7.80565  -0.053835  -0.357324  
0.0  93.25843  0.0  -0.951039  29.951035  -82.137187  3.844302  -12.933296  16.54013  -0.802012  2.202291  5.905471  -4.672604  -3.63901  -4.207444  -15.510596  -13.027575  -35.988583  4.958034  17.181538  24.804124  -1.491787  1.726774  1.940616  -1.381158  -0.228525  -0.291082  -3.772552  -0.641027  -0.782321  -3.772552  -0.641027  -0.782321  -16.082312  23.259447  6.862105  125.630887  45.91751  -154.84116  -13.906848  -0.882563  85.274022  73.108293  -29.912834  7.66401  8.229076  -14.265438  15.622802  22.719735  83.451248  -25.569607  -45.192237  -13.733804  -72.486301  68.767052  -7.247954  -47.665796  -10.194155  0.080765  -0.246508  -7.645583  0.064707  -0.183594  
0.0  93.25843  0.0  -1.073757  30.59832  -82.225396  4.098471  -13.148034  16.863577  -1.706677  1.893671  5.274718  -4.421715  -3.554765  -4.153435  -16.16112  -12.983179  -35.649315  4.177398  17.214606  24.375507  -1.065174  1.58003  1.960409  -1.500543  -0.278097  -0.324162  -4.097947  -0.779905  -0.868458  -4.097947  -0.779905  -0.868458  -16.234152  23.289389  6.725133  125.488797  45.878164  -154.924464  -14.525176  0.022632  84.800044  73.01536  -30.118911  7.413231  8.06067  -14.147649  15.587504  27.813043  83.137496  -20.456738  -44.963238  -14.195682  -72.992023  69.204525  -7.007165  -47.902678  -10.086085  0.171304  -0.11151  -7.564528  0.130361  -0.080831  
0.0  93.25843  0.0  -1.290172  30.856068  -82.398027  4.18254  -13.412368  17.041927  -1.987391  1.747205  4.955512  -4.328019  -3.533199  -4.143595  -16.78567  -13.104208  -35.341167  3.731551  17.30034  24.059774  -0.550244  1.350539  1.960323  -1.542411  -0.325364  -0.349357  -4.211471  -0.911189  -0.933794  -4.211471  -0.911189  -0.933794  -16.271061  23.31937  6.728273  125.442799  45.92599  -154.909672  -14.929021  0.843478  84.370827  72.833682  -30.346973  7.563852  7.937433  -14.094061  15.590195  31.977879  82.62988  -16.144841  -44.697598  -14.089026  -73.608728  69.528054  -6.868015  -47.878686  -10.076265  0.226722  -0.034617  -7.557177  0.170667  -0.022231  
0.0  93.25843  0.0  -1.172835  32.227816  -82.0103  3.304841  -13.511491  16.745743  -2.224259  1.534896  4.745443  -4.228795  -3.410814  -4.097113  -18.431953  -13.273887  -35.475874  3.558246  17.339311  23.812059  -0.345984  1.141937  1.994136  -1.746227  -0.353539  -0.434589  -4.76694  -0.997117  -1.161756  -4.76694  -0.997117  -1.161755  -16.474526  23.339788  6.732631  125.27629  46.126785  -154.940099  -15.225513  1.059364  83.998858  72.517723  -30.509669  7.789176  7.646024  -14.059533  15.581065  35.454594  82.016087  -12.666609  -44.355931  -13.550918  -74.200727  69.90966  -6.74723  -47.594324  -10.197883  0.255287  -0.06154  -7.648374  0.192556  -0.041909  
0.0  93.25843  0.0  -1.364877  32.365282  -82.168874  3.488215  -13.69292  16.853072  -2.343302  1.336699  4.583589  -4.286481  -3.348433  -4.125487  -18.692053  -13.351904  -35.335487  3.479619  17.266846  23.707518  -0.484171  1.036522  2.087279  -1.779876  -0.385923  -0.463971  -4.857907  -1.088317  -1.239139  -4.857907  -1.088317  -1.239139  -16.470878  23.402367  6.887592  125.21582  46.38075  -155.056308  -15.157831  0.792643  83.897563  72.180578  -30.559156  7.940414  7.517326  -14.034986  15.788728  36.385727  81.563679  -11.553124  -43.954837  -12.899689  -74.711465  70.185089  -6.676342  -47.206611  -10.160718  0.257945  -0.040303  -7.620508  0.194193  -0.025946  
0.0  93.25843  0.0  -1.423762  32.723484  -82.143236  3.281452  -13.773052  16.799649  -2.158004  1.155368  4.572636  -4.249768  -3.166386  -4.098162  -18.953985  -13.337667  -35.469253  3.353838  17.1792  23.755895  -0.760547  1.035095  2.145221  -1.850749  -0.410939  -0.522213  -5.050169  -1.162394  -1.395152  -5.050169  -1.162394  -1.395152  -16.670106  23.478021  7.052513  125.403904  46.614847  -155.122076  -15.273697  0.073964  83.658225  71.807459  -30.602618  8.408793  7.268178  -14.003669  16.11626  37.54536  81.278722  -10.374379  -43.712936  -12.157081  -74.987575  70.18971  -6.803047  -46.871959  -10.188581  0.263742  -0.030139  -7.641409  0.198374  -0.018212  
0.0  93.25843  0.0  -1.512535  32.612802  -82.173993  3.118273  -13.71938  16.90277  -1.83432  0.978775  4.454187  -4.353895  -2.996381  -4.162559  -18.711419  -13.319795  -35.675678  3.173053  17.225965  23.894585  -1.017163  1.035775  2.173769  -1.849786  -0.437418  -0.572928  -5.046059  -1.238563  -1.531709  -5.046059  -1.238563  -1.531709  -16.654498  23.660699  7.322142  125.225625  46.854183  -155.326217  -15.057743  -0.573623  83.618664  71.882153  -30.513594  8.34375  7.098689  -13.86528  16.574606  39.042843  81.104841  -8.844658  -43.715004  -11.701028  -75.157531  69.995345  -7.173905  -46.588399  -10.13022  0.285063  0.018581  -7.597658  0.213559  0.018667  
0.0  93.25843  0.0  -1.550786  32.43863  -82.082031  3.003001  -13.6242  16.958661  -1.485003  0.840277  4.330394  -3.72159  -2.568923  -3.899238  -18.598819  -13.406958  -36.094225  3.099831  17.388135  24.117053  -1.214741  1.022303  2.242179  -1.866567  -0.467687  -0.641274  -5.089888  -1.326875  -1.715785  -5.089887  -1.326875  -1.715784  -16.610913  23.90415  7.538885  125.213563  47.060936  -155.55616  -14.878682  -1.191136  83.595778  71.78344  -30.422221  8.293257  6.885776  -13.601134  17.014636  41.619173  80.885094  -6.446206  -43.814569  -11.69892  -75.269751  69.814925  -7.758015  -46.270001  -10.045518  0.32284  0.061572  -7.534151  0.241195  0.051503  
0.0  93.25843  0.0  -1.535781  32.103838  -81.916429  2.62571  -13.411407  16.963222  -0.970506  0.775081  4.216382  -3.898247  -2.339528  -4.032033  -18.430937  -13.608478  -36.651613  3.108154  17.66577  24.468201  -1.410472  0.990588  2.277126  -1.864235  -0.494095  -0.692314  -5.081774  -1.402858  -1.853259  -5.081774  -1.402858  -1.853259  -16.434894  24.112664  7.635397  124.826496  47.223286  -155.882916  -14.821695  -1.70441  83.477718  71.751337  -30.32167  8.120262  6.93712  -13.325352  17.392216  43.957232  80.594776  -4.224861  -44.037265  -11.892637  -75.372365  69.815658  -8.430439  -45.821394  -9.883904  0.351472  0.068707  -7.412945  0.262574  0.057233  
0.0  93.25843  0.0  -1.500302  31.541811  -81.70823  2.889156  -13.220143  17.04626  -1.185129  0.686372  3.777041  -3.920704  -2.070422  -4.129501  -18.284536  -13.89562  -37.373411  3.164206  17.922647  24.951352  -1.386522  1.00321  2.26734  -1.831459  -0.499798  -0.708946  -4.991666  -1.418783  -1.898986  -4.991666  -1.418783  -1.898986  -16.619912  24.107122  7.366228  124.981725  47.263911  -156.075247  -14.692594  -1.978484  83.317207  71.792498  -30.254582  8.019079  6.835934  -13.159902  17.372656  46.636114  80.083891  -1.851238  -44.372194  -11.763609  -75.361277  69.75889  -9.13104  -45.553687  -9.874182  0.286028  -0.090457  -7.405579  0.216049  -0.06324  
0.0  93.25843  0.0  -1.387516  31.035206  -81.295804  3.012206  -13.036637  16.935663  -1.058088  0.746267  3.454104  -4.028133  -1.919021  -4.234156  -18.185147  -14.258162  -38.356541  3.224543  18.227388  25.490406  -1.204009  1.04617  2.308291  -1.78289  -0.486626  -0.719351  -4.85903  -1.382193  -1.92944  -4.85903  -1.382193  -1.929439  -16.731879  23.954448  7.020135  124.826149  47.262842  -156.296239  -14.583815  -2.227495  83.059987  71.805799  -30.190922  7.900325  6.861029  -13.121194  17.169415  47.456806  79.527784  -1.076402  -44.422618  -11.762999  -75.47272  69.965427  -9.858918  -44.953491  -9.814769  0.192929  -0.269465  -7.360987  0.14907  -0.199061  
0.0  93.25843  0.0  -1.368695  29.78846  -81.159571  3.624602  -12.717219  16.976368  -0.707036  0.768393  3.217676  -4.306787  -1.865806  -4.375985  -17.734612  -14.42869  -39.328386  3.002869  18.700708  25.945439  -0.633555  1.038601  2.442721  -1.628703  -0.444268  -0.685012  -4.439396  -1.259737  -1.841727  -4.439396  -1.259737  -1.841727  -16.992262  23.639166  6.627812  125.147894  47.19801  -156.439875  -14.383626  -2.414517  82.844243  71.677248  -30.116232  7.773094  6.689396  -13.235834  16.752764  45.943788  79.175048  -2.024437  -44.408635  -11.511468  -75.478727  69.663945  -10.665322  -45.186439  -9.98363  0.036645  -0.544759  -7.487696  0.036396  -0.408099  
0.0  93.25843  0.0  -1.190485  29.283087  -80.624382  3.8699  -12.433968  16.851245  -0.46027  0.767076  2.826167  -4.391153  -1.81465  -4.409922  -17.453615  -14.607184  -40.578813  2.902561  19.043166  26.609946  -0.40535  1.019978  2.515408  -1.545292  -0.390639  -0.689009  -4.212742  -1.111186  -1.857661  -4.212742  -1.111186  -1.857661  -17.345615  23.268598  6.276153  125.056285  47.163023  -156.780324  -14.373227  -2.483032  82.573328  71.682048  -30.047966  7.634304  6.557317  -13.453705  16.318602  45.681498  78.608892  -2.068941  -44.231383  -11.361819  -75.596372  70.025312  -11.425821  -44.525882  -10.068707  -0.113967  -0.768372  -7.551684  -0.072838  -0.578343  
0.0  93.25843  0.0  -1.039612  28.6471  -80.176112  4.015832  -12.028708  16.738594  0.086968  0.687129  2.532047  -4.632436  -1.746088  -4.457153  -16.97986  -14.652258  -41.73377  2.761039  19.308807  27.289735  -0.23686  1.000213  2.570859  -1.632954  -0.317165  -0.739673  -4.453599  -0.916318  -1.999469  -4.453599  -0.916318  -1.999469  -16.331031  22.876852  6.439583  124.691046  47.11311  -157.067891  -14.438843  -2.668025  82.071953  71.948096  -29.953315  7.351042  7.171513  -13.863926  16.124194  46.519221  78.007751  -1.180706  -43.980291  -11.149234  -75.704673  70.526657  -12.087841  -43.821928  -9.527646  -0.275503  -0.799561  -7.146096  -0.194217  -0.604139  
0.0  93.25843  0.0  -0.903241  28.188555  -79.654899  4.039811  -11.606397  16.561654  0.635941  0.594891  2.282231  -4.744528  -1.721039  -4.443863  -16.520374  -14.648221  -42.874068  2.55622  19.466666  27.958789  -0.249824  1.016876  2.553007  -1.571147  -0.271377  -0.739782  -4.285998  -0.789386  -2.0036  -4.285998  -0.789386  -2.0036  -16.534019  22.488722  6.17475  124.769503  47.011872  -157.268878  -14.319157  -2.897084  81.7519  72.166864  -29.845139  7.371451  7.155863  -14.124171  15.68535  46.070724  77.606233  -1.215959  -43.710544  -10.716473  -75.776138  71.238891  -12.592943  -42.93776  -9.529221  -0.384537  -1.099281  -7.147608  -0.271339  -0.830693  
0.0  93.25843  0.0  -0.876539  27.588175  -79.314988  4.018906  -11.211668  16.339755  0.93849  0.391625  2.011388  -4.501498  -1.532493  -4.224222  -15.864517  -14.583208  -43.778803  2.318769  19.53102  28.607527  -0.31407  1.003754  2.409173  -1.384149  -0.210579  -0.758319  -3.776503  -0.618703  -2.060014  -3.776503  -0.618703  -2.060013  -17.389741  22.046451  6.185494  124.813632  46.873057  -157.39707  -14.143332  -3.498538  81.328101  72.409953  -29.634155  7.321733  6.131235  -14.505816  15.412556  46.581705  77.203282  -0.461707  -43.451917  -9.943508  -75.798827  72.00219  -12.995189  -42.065215  -9.964281  -0.511171  -1.30819  -7.474295  -0.362163  -0.989784  
